# xmcd
#
# Track frame offsets:
#	150
#	77377
#	124248
#
# Disc length: 2090 seconds
#
# Revision: 1
# Processed by: cddbd v1.5.2PL0 Copyright (c) Steve Scherf et al.
# Submitted via: audiograbber 1.83.01
#
DISCID=19082803
DTITLE=Grateful Dead - 74-09-21 Palais des Sports, Paris, France
DYEAR=1900
DGENRE=
TTITLE0=Morning Dew
TTITLE1=Sugar Magnolia
TTITLE2=Casey Jones
EXTD=
EXTT0=
EXTT1=
EXTT2=
PLAYORDER=
